{"title":"Stella Days 2011 HDTV AC3-5 1 XviD-SiC","uid":7250906,"size":1522045371,"categoryP":"video","categoryS":"movies","magnet":"?xt=urn:btih:056dcb8695bf668f631c40f9ff26a3731b626b4f&amp;dn=Stella+Days+2011+HDTV+AC3-5+1+XviD-SiC&amp;tr=udp%3A%2F%2Ftracker.openbittorrent.com%3A80&amp;tr=udp%3A%2F%2Fopen.demonii.com%3A1337&amp;tr=udp%3A%2F%2Ftracker.coppersurfer.tk%3A6969&amp;tr=udp%3A%2F%2Fexodus.desync.com%3A6969","seeders":2,"leechers":2,"uploader":".BONE.","files":3,"time":1336449791,"description":"A small town cinema in rural Ireland becomes the setting for a dramatic struggle between faith and passion, Rome and Hollywood and a man and his conscience. \n\n\nMediaInfo:\nGeneral\nComplete name : Stella.Days.2011.HDTV.AC3-5.1.XviD-SiC.avi\nFormat : AVI\nFormat/Info : Audio Video Interleave\nFile size : 1.40 GiB\nDuration : 1h 29mn\nOverall bit rate : 2 247 Kbps\n\nVideo\nID : 0\nFormat : MPEG-4 Visual\nFormat profile : Advanced Simple@L5\nFormat settings, BVOP : 1\nFormat settings, QPel : No\nFormat settings, GMC : No warppoints\nFormat settings, Matrix : Default (H.263)\nCodec ID : XVID\nCodec ID/Hint : XviD\nDuration : 1h 29mn\nBit rate : 1 849 Kbps\nWidth : 720 pixels\nHeight : 304 pixels\nDisplay aspect ratio : 2.35:1\nFrame rate : 59.940 fps\nColor space : YUV\nChroma subsampling : 4:2:0\nBit depth : 8 bits\nScan type : Progressive\nCompression mode : Lossy\nBits/(Pixel*Frame) : 0.141\nStream size : 1.15 GiB (82%)\nWriting library : XviD 1.2.1 (UTC 2008-12-04)\n\nAudio\nID : 1\nFormat : AC-3\nFormat/Info : Audio Coding 3\nMode extension : CM (complete main)\nFormat settings, Endianness : Big\nCodec ID : 2000\nDuration : 1h 29mn\nBit rate mode : Constant\nBit rate : 384 Kbps\nChannel(s) : 6 channels\nChannel positions : Front: L C R, Side: L R, LFE\nSampling rate : 48.0 KHz\nBit depth : 16 bits\nCompression mode : Lossy\nStream size : 245 MiB (17%)\nAlignment : Aligned on interleaves\nInterleave, duration : 64 ms (3.84 video frames)\nInterleave, preload duration : 192 ms\nTitle : Stella.Days.2011.HDTV.AC3-5.1-SiC.dga PID 1100 3_2ch 48KHz 384Kbps\nDELAY -18ms","torrent":{"xt":"urn:btih:056dcb8695bf668f631c40f9ff26a3731b626b4f","amp;dn":"Stella+Days+2011+HDTV+AC3-5+1+XviD-SiC","amp;tr":["udp%3A%2F%2Ftracker.openbittorrent.com%3A80","udp%3A%2F%2Fopen.demonii.com%3A1337","udp%3A%2F%2Ftracker.coppersurfer.tk%3A6969","udp%3A%2F%2Fexodus.desync.com%3A6969"],"infoHash":"056dcb8695bf668f631c40f9ff26a3731b626b4f","infoHashBuffer":{"type":"Buffer","data":[5,109,203,134,149,191,102,143,99,28,64,249,255,38,163,115,27,98,107,79]},"announce":[],"urlList":[]}}